<?xml version="1.0" encoding="UTF-8" standalone="no"?>
<!DOCTYPE svg PUBLIC "-//W3C//DTD SVG 1.1//EN" "http://www.w3.org/Graphics/SVG/1.1/DTD/svg11.dtd">
<svg width="100%" height="100%" viewBox="0 0 1152 360" version="1.1" xmlns="http://www.w3.org/2000/svg" xmlns:xlink="http://www.w3.org/1999/xlink" xml:space="preserve" xmlns:serif="http://www.serif.com/" style="fill-rule:evenodd;clip-rule:evenodd;stroke-linejoin:round;stroke-miterlimit:1.41421;">
    <g id="Artboard1" transform="matrix(0.9,0,0,0.28125,0,0)">
        <rect x="0" y="0" width="1280" height="1280" style="fill:none;"/>
        <g transform="matrix(44.0771,0,0,141.093,-15899.4,-84111)">
            <path d="M367.066,601.981C367.066,600.205 365.746,598.753 364.114,598.753C363.394,598.753 362.782,598.981 362.314,599.473L362.314,596.137L360.718,596.137L360.718,601.981C360.718,603.769 362.026,605.209 363.898,605.209C365.758,605.209 367.066,603.769 367.066,601.981ZM365.482,601.993C365.482,602.977 364.774,603.733 363.898,603.733C363.022,603.733 362.314,602.953 362.314,601.993C362.314,601.009 363.022,600.217 363.898,600.217C364.774,600.217 365.482,600.973 365.482,601.993Z" style="fill:rgb(15,15,15);fill-rule:nonzero;"/>
            <path d="M367.528,602.473C367.528,604.165 368.488,605.245 370.3,605.053L370.3,603.613C369.52,603.661 369.124,603.349 369.124,602.473L369.124,596.137L367.528,596.137L367.528,602.473Z" style="fill:rgb(15,15,15);fill-rule:nonzero;"/>
            <path d="M376.606,601.981C376.606,600.193 375.298,598.729 373.438,598.729C371.566,598.729 370.258,600.193 370.258,601.981C370.258,603.757 371.59,605.197 373.222,605.197C373.966,605.197 374.638,604.933 375.106,604.417L375.106,605.065L376.606,605.065L376.606,601.981ZM375.022,601.993C375.022,602.953 374.314,603.733 373.438,603.733C372.562,603.733 371.854,602.977 371.854,601.993C371.854,600.973 372.562,600.217 373.438,600.217C374.314,600.217 375.022,601.009 375.022,601.993Z" style="fill:rgb(15,15,15);fill-rule:nonzero;"/>
            <path d="M377.368,601.489L377.368,605.065L378.952,605.065L378.952,601.453C378.952,600.757 379.456,600.277 380.152,600.277C381.196,600.277 381.316,601.105 381.316,601.453L381.316,605.065L382.9,605.065L382.9,601.489C382.9,599.869 381.88,598.729 380.152,598.729C378.472,598.729 377.368,599.917 377.368,601.489Z" style="fill:rgb(15,15,15);fill-rule:nonzero;"/>
            <path d="M389.758,596.137L388.174,596.137L388.174,599.473C387.694,598.981 387.094,598.753 386.362,598.753C384.742,598.753 383.41,600.205 383.41,601.981C383.41,603.769 384.718,605.209 386.59,605.209C388.45,605.209 389.758,603.769 389.758,601.981L389.758,596.137ZM388.174,601.993C388.174,602.953 387.466,603.733 386.59,603.733C385.714,603.733 385.006,602.977 385.006,601.993C385.006,600.973 385.714,600.217 386.59,600.217C387.466,600.217 388.174,601.009 388.174,601.993Z" style="fill:rgb(15,15,15);fill-rule:nonzero;"/>
        </g>
    </g>
</svg>
