<?xml version="1.0" standalone="no"?>
<!DOCTYPE svg PUBLIC "-//W3C//DTD SVG 20010904//EN"
 "http://www.w3.org/TR/2001/REC-SVG-20010904/DTD/svg10.dtd">
<svg version="1.0" xmlns="http://www.w3.org/2000/svg"
 width="960.000000pt" height="960.000000pt" viewBox="0 0 960.000000 960.000000"
 preserveAspectRatio="xMidYMid meet">
<metadata>
Created by potrace 1.11, written by Peter Selinger 2001-2013
</metadata>
<g transform="translate(0.000000,960.000000) scale(0.100000,-0.100000)"
fill="#000000" stroke="none">
<path d="M1779 8913 c0 -115 0 -1391 0 -2837 0 -2293 3 -2786 16 -2856 2 -8 6
-44 9 -80 46 -448 229 -951 491 -1350 453 -689 1211 -1163 2040 -1276 22 -3
51 -7 65 -10 152 -25 660 -25 810 0 14 3 43 7 65 10 22 4 51 8 65 11 14 2 41
7 60 10 28 4 164 35 262 59 52 13 298 100 360 127 313 135 597 318 817 524
152 143 242 242 355 390 236 310 404 656 516 1060 13 44 24 94 27 110 2 17 8
44 13 60 13 44 48 277 55 365 4 41 8 95 11 120 5 61 5 365 0 415 -3 22 -8 69
-11 105 -10 113 -23 211 -41 305 -2 11 -7 34 -10 50 -26 145 -108 413 -181
590 -43 104 -148 318 -195 395 -26 43 -120 191 -130 205 -147 196 -180 236
-293 355 -278 291 -551 482 -940 655 -197 88 -522 170 -765 192 -148 14 -511
7 -615 -11 -11 -2 -45 -8 -75 -12 -30 -4 -57 -8 -60 -9 -280 -60 -434 -112
-627 -212 -202 -104 -325 -193 -510 -367 -35 -33 -63 -55 -64 -50 0 5 0 719
-1 1587 l-1 1577 -758 0 -759 0 -1 -207z m3126 -3684 c33 -1 76 -6 95 -10 19
-4 51 -10 70 -12 106 -13 283 -77 415 -150 310 -172 549 -447 692 -797 53
-130 104 -325 118 -445 3 -33 8 -73 10 -90 6 -44 6 -291 0 -355 -39 -410 -208
-782 -480 -1053 -69 -69 -226 -197 -241 -197 -4 0 -15 -6 -23 -14 -49 -43
-267 -139 -391 -171 -71 -19 -73 -19 -145 -30 -82 -13 -95 -14 -220 -15 -480
-4 -929 248 -1223 686 -66 98 -151 277 -192 403 -34 105 -50 173 -79 341 -5
30 -8 143 -7 250 4 231 25 365 87 552 155 469 480 836 890 1006 76 31 210 71
264 79 17 2 37 6 45 9 8 3 55 8 105 11 49 3 91 6 93 8 1 1 15 1 30 -1 15 -1
54 -4 87 -5z"/>
</g>
</svg>
